# xmcd
#
# Track frame offsets:
#	150
#	17427
#	37332
#	41600
#	59232
#	80335
#	105570
#	119025
#	141570
#	168550
#	188937
#
# Disc length: 2583 seconds
#
# Revision: 1
# Processed by: cddbd v1.5.1PL0 Copyright (c) Steve Scherf et al.
# Submitted via: CDex 1.50Beta5
#
DISCID=a50a150b
DTITLE=池澤春菜 - chocolat〜ショコラ〜
DYEAR=2000
DGENRE=Pop
TTITLE0=いのり
TTITLE1=ECLIPSE
TTITLE2=Etude
TTITLE3=神サマの名前
TTITLE4=知ってるの
TTITLE5=LOVE SONG
TTITLE6=ママ
TTITLE7=KILLING ME SOFTLY WITH HIS SONG
TTITLE8=ラプンツェル
TTITLE9=歩いていこう
TTITLE10=Etude
EXTD=
EXTT0=
EXTT1=
EXTT2=
EXTT3=
EXTT4=
EXTT5=
EXTT6=
EXTT7=
EXTT8=
EXTT9=
EXTT10=
PLAYORDER=
